<?xml version="1.0" encoding="UTF-8"?>
<svg id="Layer_2" data-name="Layer 2" xmlns="http://www.w3.org/2000/svg" viewBox="0 0 433.39 68.88">
  <defs>
    <style>
      .cls-1 {
        fill: #515251;
        opacity: .14;
      }
    </style>
  </defs>
  <g id="Layer_1-2" data-name="Layer 1">
    <g>
      <path class="cls-1" d="M0,68.4V.48H15.39L63.46,49.3V.48h15.2V68.4h-15.39L15.2,19.48v48.92H0Z"/>
      <path class="cls-1" d="M91.96,68.4V.48h74.48V12.82h-59.28v15.01h53.77v12.35h-53.77v15.86h59.28v12.35H91.96Z"/>
      <path class="cls-1" d="M171.19,68.4l25.46-33.92L171.19,.48h18.52l20.42,27.83h8.74L239.3,.48h18.52l-25.46,34.01,25.46,33.92h-18.62l-20.33-27.74h-8.74l-20.33,27.74h-18.62Z"/>
      <path class="cls-1" d="M292.88,68.88c-6.9,0-12.35-.9-16.34-2.71-3.99-1.81-6.84-4.54-8.55-8.22-1.71-3.67-2.56-8.3-2.56-13.87V.48h15.2V44.08c0,4.81,1.12,8.09,3.37,9.83,2.25,1.74,6.06,2.61,11.45,2.61h18.33c5.38,0,9.2-.87,11.45-2.61,2.25-1.74,3.37-5.02,3.37-9.83V.48h15.2V44.08c0,5.57-.86,10.2-2.57,13.87-1.71,3.67-4.56,6.41-8.55,8.22-3.99,1.8-9.44,2.71-16.34,2.71h-23.46Z"/>
      <path class="cls-1" d="M354.92,68.88v-12.35l54.62,.1c2.79,0,4.92-.65,6.41-1.95,1.49-1.3,2.23-3.4,2.23-6.32s-.75-5.02-2.23-6.32c-1.49-1.3-3.63-1.95-6.41-1.95h-34.01c-7.03,0-12.49-1.69-16.39-5.08-3.89-3.39-5.84-8.38-5.84-14.96s1.95-11.57,5.84-14.96c3.9-3.39,9.36-5.08,16.39-5.08h53.39V12.35l-51.77-.1c-2.72,0-4.85,.62-6.37,1.85-1.52,1.23-2.28,3.22-2.28,5.94s.76,4.7,2.28,5.94c1.52,1.23,3.64,1.85,6.37,1.85h34.01c7.03,0,12.49,1.73,16.39,5.18,3.89,3.45,5.84,8.57,5.84,15.34s-1.95,11.81-5.84,15.29c-3.9,3.48-9.36,5.23-16.39,5.23h-56.24Z"/>
    </g>
  </g>
</svg>