<?xml version="1.0" encoding="UTF-8"?>
<svg id="Layer_2" data-name="Layer 2" xmlns="http://www.w3.org/2000/svg" viewBox="0 0 434.72 58.25">
  <defs>
    <style>
      .cls-1 {
        fill: #f63c5c;
      }

      .cls-2 {
        fill: #ff9b00;
      }

      .cls-3 {
        fill: #231f20;
      }

      .cls-4 {
        fill: #5e38f7;
      }
    </style>
  </defs>
  <g id="Layer_1-2" data-name="Layer 1">
    <g>
      <g>
        <g>
          <path class="cls-4" d="M73.23,22.35v20.45h-3.91V15.02l31.25,20.88V15.45h3.91v27.77l-31.25-20.88Z"/>
          <path class="cls-4" d="M104.98,44.16l-31.25-20.88v20.01h-4.91V14.09l31.25,20.88V14.95h4.91v29.21Zm-35.16-1.87h2.91V21.41l31.25,20.88V15.95h-2.91v20.88l-31.25-20.88v26.34Z"/>
        </g>
        <g>
          <path class="cls-4" d="M143.55,15.45v3.91h-31.25v7.81h27.34v3.91h-27.34v7.81h31.25v3.91h-35.16V15.45h35.16Z"/>
          <path class="cls-4" d="M144.05,43.3h-36.16V14.95h36.16v4.91h-31.25v6.81h27.34v4.91h-27.34v6.81h31.25v4.91Zm-35.16-1h34.16v-2.91h-31.25v-8.81h27.34v-2.91h-27.34v-8.81h31.25v-2.91h-34.16v26.34Z"/>
        </g>
        <g>
          <path class="cls-4" d="M162,29.12l-16.21-13.67h6.07l13.16,11.11,13.16-11.11h6.07l-16.19,13.67,16.19,13.67h-6.07l-13.16-11.11-13.16,11.11h-6.07l16.21-13.67Z"/>
          <path class="cls-4" d="M185.64,43.3h-7.62l-12.98-10.96-12.98,10.96h-7.63l16.8-14.17-16.8-14.17h7.63l12.98,10.96,12.98-10.96h7.62l-16.78,14.17,16.78,14.17Zm-7.26-1h4.52l-15.6-13.17,15.6-13.17h-4.52l-13.35,11.27-13.35-11.27h-4.52l15.62,13.17-15.62,13.17h4.52l13.35-11.27,13.35,11.27Z"/>
        </g>
        <g>
          <path class="cls-4" d="M186.52,34.98V15.45h3.91v19.53c0,2.6,1.3,3.91,3.91,3.91h19.53c2.6,0,3.91-1.3,3.91-3.91V15.45h3.91v19.53c0,5.21-2.61,7.81-7.81,7.81h-19.53c-5.21,0-7.81-2.6-7.81-7.81Z"/>
          <path class="cls-4" d="M213.86,43.3h-19.53c-5.52,0-8.31-2.8-8.31-8.31V14.95h4.91v20.03c0,2.32,1.08,3.41,3.41,3.41h19.53c2.32,0,3.41-1.08,3.41-3.41V14.95h4.91v20.03c0,5.52-2.8,8.31-8.31,8.31Zm-26.84-27.34v19.03c0,4.92,2.39,7.31,7.31,7.31h19.53c4.92,0,7.31-2.39,7.31-7.31V15.95h-2.91v19.03c0,2.88-1.52,4.41-4.41,4.41h-19.53c-2.88,0-4.41-1.52-4.41-4.41V15.95h-2.91Z"/>
        </g>
        <g>
          <path class="cls-4" d="M252.92,15.45c5.21,0,7.81,2.6,7.81,7.81h-3.91c0-2.6-1.3-3.91-3.91-3.91h-19.53c-2.6,0-3.91,1.3-3.91,3.91s1.3,3.91,3.91,3.91h19.53c5.21,0,7.81,2.6,7.81,7.81s-2.6,7.81-7.81,7.81h-19.53c-5.21,0-7.81-2.6-7.81-7.81h3.91c0,2.6,1.3,3.91,3.91,3.91h19.53c2.6,0,3.91-1.3,3.91-3.91s-1.3-3.91-3.91-3.91h-19.53c-5.21,0-7.81-2.6-7.81-7.81s2.6-7.81,7.81-7.81h19.53Z"/>
          <path class="cls-4" d="M252.92,43.3h-19.53c-5.52,0-8.31-2.8-8.31-8.31v-.5h4.91v.5c0,2.32,1.08,3.41,3.41,3.41h19.53c2.32,0,3.41-1.08,3.41-3.41s-1.08-3.41-3.41-3.41h-19.53c-5.52,0-8.31-2.8-8.31-8.31s2.8-8.31,8.31-8.31h19.53c5.52,0,8.31,2.8,8.31,8.31v.5h-4.91v-.5c0-2.32-1.08-3.41-3.41-3.41h-19.53c-2.32,0-3.41,1.08-3.41,3.41s1.08,3.41,3.41,3.41h19.53c5.52,0,8.31,2.8,8.31,8.31s-2.8,8.31-8.31,8.31Zm-26.83-7.81c.16,4.58,2.55,6.81,7.3,6.81h19.53c4.92,0,7.31-2.39,7.31-7.31s-2.39-7.31-7.31-7.31h-19.53c-2.88,0-4.41-1.52-4.41-4.41s1.52-4.41,4.41-4.41h19.53c2.71,0,4.22,1.35,4.39,3.91h2.91c-.16-4.58-2.55-6.81-7.3-6.81h-19.53c-4.92,0-7.31,2.39-7.31,7.31s2.39,7.31,7.31,7.31h19.53c2.88,0,4.41,1.52,4.41,4.41s-1.52,4.41-4.41,4.41h-19.53c-2.71,0-4.22-1.35-4.39-3.91h-2.91Z"/>
        </g>
        <path class="cls-3" d="M278.47,22.35v20.45h-3.91V15.02l17.58,11.74,17.58-11.74v27.77h-3.91V22.35l-13.67,9.12-13.67-9.12Z"/>
        <path class="cls-3" d="M317.53,42.8h-3.91V15.45h3.91v27.34Z"/>
        <path class="cls-3" d="M325.34,22.35v20.45h-3.91V15.02l31.25,20.88V15.45h3.91v27.77l-31.25-20.88Z"/>
        <path class="cls-3" d="M387.84,15.45c5.21,0,7.81,2.6,7.81,7.81v11.72c0,5.21-2.6,7.81-7.81,7.81h-27.34V15.45h27.34Zm3.91,7.81c0-2.6-1.3-3.91-3.91-3.91h-23.44v19.53h23.44c2.6,0,3.91-1.3,3.91-3.91v-11.72Z"/>
        <path class="cls-3" d="M426.91,15.45c5.21,0,7.81,2.6,7.81,7.81h-3.91c0-2.6-1.3-3.91-3.91-3.91h-19.53c-2.6,0-3.91,1.3-3.91,3.91s1.3,3.91,3.91,3.91h19.53c5.21,0,7.81,2.6,7.81,7.81s-2.6,7.81-7.81,7.81h-19.53c-5.21,0-7.81-2.6-7.81-7.81h3.91c0,2.6,1.3,3.91,3.91,3.91h19.53c2.6,0,3.91-1.3,3.91-3.91s-1.3-3.91-3.91-3.91h-19.53c-5.21,0-7.81-2.6-7.81-7.81s2.6-7.81,7.81-7.81h19.53Z"/>
      </g>
      <polygon class="cls-2" points="51.61 55.28 0 18.23 0 2.43 51.61 39.48 51.61 55.28"/>
      <polygon class="cls-1" points="51.78 35.34 26.02 15.8 26.02 0 51.78 19.54 51.78 35.34"/>
      <polygon class="cls-4" points="0 22.9 25.76 42.45 25.76 58.25 0 38.7 0 22.9"/>
    </g>
  </g>
</svg>